{"title":"The.Expendables.3.2014.UNRATED.BDRiP.AC3-5.1.XviD-AXED","uid":11421955,"size":2002581648,"categoryP":"video","categoryS":"movies","magnet":"?xt=urn:btih:d29b11546798a9adcaa37888e5f7367bd1fb83b2&amp;dn=The.Expendables.3.2014.UNRATED.BDRiP.AC3-5.1.XviD-AXED&amp;tr=udp%3A%2F%2Ftracker.openbittorrent.com%3A80&amp;tr=udp%3A%2F%2Fopen.demonii.com%3A1337&amp;tr=udp%3A%2F%2Ftracker.coppersurfer.tk%3A6969&amp;tr=udp%3A%2F%2Fexodus.desync.com%3A6969","seeders":5,"leechers":4,"uploader":"TvTeam","files":4,"time":1415629452,"description":" &lt;a href=&quot;http://www.torrenting.com&quot; rel=&quot;nofollow&quot; target=&quot;_NEW&quot;&gt;http://www.torrenting.com&lt;/a&gt;\n\nSign up is OPEN - for time being. Come and have fun.\n\n------------------------------------------------------------------(  ___  )|     /|(  ____ (  __   \n| (   ) |(    / )| (    /| (    )\n| (___) |  (_) / | (__    | |   ) |\n|  ___  |  ) _ (  |  __)   | |   | |\n| (   ) | / ( )  | (      | |   ) |\n| )   ( |( /    )| (____/| (__/  )\n|/     ||/     |(_______/(______/ \n  _    _    _    _    _    _    _    _  \n /   /   /   /   /   /   /   /  \n( p )( r )( e )( s )( e )( n )( t )( s )\n _/  _/  _/  _/  _/  _/  _/  _/\n \nThe.Expendables.3.2014.UNRATED.BDRiP.AC3-5.1.XviD-AXED\n\n\nIMDB: &lt;a href=&quot;\nhttp://www.imdb.com/title/tt2333784&quot; rel=&quot;nofollow&quot; target=&quot;_NEW&quot;&gt;\nhttp://www.imdb.com/title/tt2333784&lt;/a&gt;\n\nPLOT INFO:\nBarney augments his team with new blood for a personal battle: to take down Conrad Stonebanks, the Expendables co-founder and notorious arms trader who is hell bent on wiping out Barney and every single one of his associates.\n\nMedia Info:\nGeneral\nComplete name                            : The.Expendables.3.2014.UNRATED.BDRiP.AC3-5.1.XviD-AXED.avi\nFormat                                   : AVI\nFormat/Info                              : Audio Video Interleave\nFile size                                : 1.85 GiB\nDuration                                 : 2h 11mn\nOverall bit rate                         : 2 015 Kbps\n\nVideo\nID                                       : 0\nFormat                                   : MPEG-4 Visual\nFormat profile                           : Advanced Simple@L5\nFormat settings, BVOP                    : 2\nFormat settings, QPel                    : No\nFormat settings, GMC                     : No warppoints\nFormat settings, Matrix                  : Default (H.263)\nMuxing mode                              : Packed bitstream\nCodec ID                                 : XVID\nCodec ID/Hint                            : XviD\nDuration                                 : 2h 11mn\nBit rate                                 : 1 559 Kbps\nWidth                                    : 720 pixels\nHeight                                   : 304 pixels\nDisplay aspect ratio                     : 2.35:1\nFrame rate                               : 23.976 fps\nColor space                              : YUV\nChroma subsampling                       : 4:2:0\nBit depth                                : 8 bits\nScan type                                : Progressive\nCompression mode                         : Lossy\nBits/(Pixel*Frame)                       : 0.297\nStream size                              : 1.43 GiB (77%)\nWriting library                          : XviD 64\n\nAudio\nID                                       : 1\nFormat                                   : AC-3\nFormat/Info                              : Audio Coding 3\nMode extension                           : CM (complete main)\nFormat settings, Endianness              : Big\nCodec ID                                 : 2000\nDuration                                 : 2h 11mn\nBit rate mode                            : Constant\nBit rate                                 : 448 Kbps\nChannel(s)                               : 6 channels\nChannel positions                        : Front: L C R, Side: L R, LFE\nSampling rate                            : 48.0 KHz\nBit depth                                : 16 bits\nCompression mode                         : Lossy\nStream size                              : 421 MiB (22%)\nAlignment                                : Aligned on interleaves\nInterleave, duration                     : 64 ms (1.53 video frames)\nInterleave, preload duration             : 192 ms\nTitle                                    : ex3ur\n\n\n\nSOURCE: \nRetail RA Blu-Ray DISC\n\nNOTES: \nHere's the unrated version everyone's been waiting on of the latest Expendables film, encoded from the Retail RA Blu-Ray. \n\nP.S.\nSize is a bit bigger as we upped the bitrate to keep the quality suitable with the runtime and all the action scenes. We still kept with XviD for SD  because we know many still prefer it. Don't like it? That sucks.\n\n\n*AXED! Gone? Hah!*","torrent":{"xt":"urn:btih:d29b11546798a9adcaa37888e5f7367bd1fb83b2","amp;dn":"The.Expendables.3.2014.UNRATED.BDRiP.AC3-5.1.XviD-AXED","amp;tr":["udp%3A%2F%2Ftracker.openbittorrent.com%3A80","udp%3A%2F%2Fopen.demonii.com%3A1337","udp%3A%2F%2Ftracker.coppersurfer.tk%3A6969","udp%3A%2F%2Fexodus.desync.com%3A6969"],"infoHash":"d29b11546798a9adcaa37888e5f7367bd1fb83b2","infoHashBuffer":{"type":"Buffer","data":[210,155,17,84,103,152,169,173,202,163,120,136,229,247,54,123,209,251,131,178]},"announce":[],"urlList":[]}}